PathFileType	4	(X/Y/Z)	E:\Qualisys_Data\Carbon_Farble_Plate\Data\Amateur_Runner\S1\T1\S1T1V21_c3d.trc
DataRate	CameraRate	NumFrames	NumMarkers	Units	OrigDataRate	OrigDataStartFrame	OrigNumFrames
200.000000	200.000000	4	39	mm	200.000000	176	283
Frame#	Time	LSHO			RSHO			LICST			RICST			LASIS			LHEEL			RASIS			LTROC			RTROC			SACR			LTH1			LSK4			LTH2			LTH3			RHM5			LSK2			LTH4			RTH1			LTOE			RTH2			RTH3			RTH4			LLEP			RLEP			LSK1			LSK3			RSK1			LHM5			RSK2			LFT1			RSK3			RSK4			LLME			RLME			RTOE			RHEEL			RFT1			RFT2			LFT2			
		X1	Y1	Z1	X2	Y2	Z2	X3	Y3	Z3	X4	Y4	Z4	X5	Y5	Z5	X6	Y6	Z6	X7	Y7	Z7	X8	Y8	Z8	X9	Y9	Z9	X10	Y10	Z10	X11	Y11	Z11	X12	Y12	Z12	X13	Y13	Z13	X14	Y14	Z14	X15	Y15	Z15	X16	Y16	Z16	X17	Y17	Z17	X18	Y18	Z18	X19	Y19	Z19	X20	Y20	Z20	X21	Y21	Z21	X22	Y22	Z22	X23	Y23	Z23	X24	Y24	Z24	X25	Y25	Z25	X26	Y26	Z26	X27	Y27	Z27	X28	Y28	Z28	X29	Y29	Z29	X30	Y30	Z30	X31	Y31	Z31	X32	Y32	Z32	X33	Y33	Z33	X34	Y34	Z34	X35	Y35	Z35	X36	Y36	Z36	X37	Y37	Z37	X38	Y38	Z38	X39	Y39	Z39	

177	0.88	777.6130981445312	1506.664184570312	-578.8720703125	815.4266357421875	1477.120971679688	-252.8576049804688	757.9207153320312	1032.196166992188	-551.1144409179688	769.0454711914062	1037.409790039062	-252.7617645263672	800.8097534179688	993.031005859375	-524.46337890625	613.4832153320312	295.8515014648438	-460.5507202148438	803.8840942382812	985.7462158203124	-262.3690795898438	713.7709350585938	909.1072387695312	-575.1820678710938	679.402587890625	910.7713623046876	-237.8974914550781	646.3492431640625	1053.853759765625	-394.8035888671875	898.38623046875	835.55810546875	-537.9696044921875	729.2150268554688	413.3510437011719	-490.1844177246094	836.8515014648438	785.7639770507812	-572.0593872070312	956.031494140625	749.2186889648438	-525.516845703125	451.8112182617188	54.72037887573242	-272.1946411132812	802.9052124023438	478.4012451171875	-523.2616577148438	889.8251342773438	701.9773559570312	-552.1923828125	771.0170288085938	759.5833129882812	-263.6080627441406	820.45263671875	144.9091949462891	-453.1469421386719	699.0001831054688	776.6444091796875	-231.7626800537109	742.4636840820312	662.8886108398438	-276.8657531738281	667.433837890625	683.2390747070312	-251.7036437988281	981.1989135742188	585.5888671875	-514.5360107421875	639.0658569335938	515.1417846679688	-296.7094421386719	857.933349609375	415.8786926269531	-514.3548583984375	779.0673217773438	353.2356567382812	-510.847900390625	534.9246215820312	354.6181030273438	-280.2628479003906	758.4390258789062	164.3019561767578	-513.520751953125	467.2226257324219	398.2215881347656	-287.6913452148438	608.2874145507812	271.0418395996094	-430.1971130371094	482.6340637207031	269.4420471191406	-290.9879150390625	416.8436279296875	313.8525085449219	-311.1660461425781	673.2891235351562	285.6525573730469	-504.1947021484375	382.0640563964844	176.3252258300781	-291.0162353515625	520.6671142578125	49.23859024047852	-355.0025329589844	299.6805114746094	163.074462890625	-333.4638061523438	299.4134216308594	133.5946350097656	-365.6117553710938	295.8976745605469	138.4638977050781	-307.5937194824219	602.5712890625	267.8942260742188	-482.6354370117188
178	0.885	796.4113159179688	1509.796997070312	-579.9527587890625	837.6087646484375	1481.863403320312	-254.5430603027344	779.67578125	1036.508422851562	-552.2583618164062	791.7313842773438	1040.308715820312	-253.9685363769531	822.9165649414062	996.8461303710938	-524.6888427734375	650.1847534179688	282.8895568847656	-459.9911499023438	825.7854614257812	987.86279296875	-263.403076171875	736.3778076171875	913.41748046875	-576.0015869140625	700.4440307617188	914.6912231445312	-238.4885406494141	668.903564453125	1058.341796875	-395.5805053710938	920.781982421875	840.7354125976562	-537.0086059570312	759.0296630859375	405.3362731933594	-490.5921630859375	859.8839111328125	790.851318359375	-571.9163208007812	979.0198974609376	754.5343017578125	-524.5451049804688	454.1470947265625	56.02531814575195	-271.8883972167969	830.0859375	474.8327026367188	-523.0433959960938	913.0709838867188	707.2180786132812	-551.9973754882812	789.064697265625	762.0877075195312	-264.1166687011719	864.258544921875	142.258056640625	-454.6681823730469	717.33203125	780.6526489257812	-232.1129608154297	757.8843994140625	665.757568359375	-277.7762145996094	683.6535034179688	688.0394287109375	-251.9050750732422	1004.001708984375	590.4525756835938	-514.0054321289062	650.798583984375	520.558349609375	-296.628662109375	887.6856689453125	414.781982421875	-514.4031982421875	812.479248046875	348.4127502441406	-510.7415161132812	544.8217163085938	361.5990600585938	-279.3772583007812	800.8262329101562	158.8771362304688	-514.3643188476562	476.5594482421875	405.8026123046875	-287.4442749023438	646.05224609375	257.6910400390625	-429.5070190429688	491.8667602539062	276.6080017089844	-289.4641723632812	426.9941101074219	321.0453491210938	-311.44970703125	710.0458984375	275.5332641601562	-503.9736938476562	390.9607849121094	183.4030609130859	-290.4045104980469	522.6043701171875	48.89980697631836	-354.3885803222656	311.1391296386719	174.2145690917969	-334.1708984375	307.8274230957031	144.3275299072266	-365.9287109375	303.7614440917969	149.0394897460938	-308.6227111816406	640.341064453125	254.7639007568359	-482.4680480957031
179	0.89	815.0205688476562	1512.61572265625	-580.8740844726562	859.7698974609375	1486.220947265625	-256.1723022460938	803.0790405273438	1040.583862304688	-551.3074951171875	814.5921630859375	1043.089599609375	-254.7647857666016	844.6580810546875	1000.652221679688	-525.482177734375	687.6277465820312	270.1912536621094	-459.3952941894531	848.2869873046875	989.9874877929688	-264.3598327636719	759.13720703125	918.183837890625	-576.8462524414062	721.6582641601562	918.6519775390624	-239.3252868652344	691.4263305664062	1062.2021484375	-396.5241394042969	943.4150390625	845.8013305664062	-536.0402221679688	789.9305419921875	398.3478393554688	-489.7259826660156	882.73291015625	796.106689453125	-572.29052734375	1001.553649902344	759.738037109375	-523.49951171875	455.3673400878906	56.89842987060547	-272.031494140625	856.810791015625	470.4582824707031	-522.9049682617188	936.4223022460938	712.4215698242188	-551.8570556640625	807.1741943359375	764.2031860351562	-264.0302734375	907.8549194335938	139.7691802978516	-455.2432861328125	735.8943481445312	784.9380493164062	-232.7916412353516	774.0186157226562	669.1256103515625	-277.6586608886719	700.124755859375	693.0687255859375	-251.8030548095703	1026.0576171875	595.1312255859375	-513.6393432617188	663.079345703125	526.2672119140625	-295.9707946777344	917.8405151367188	413.451416015625	-514.1476440429688	846.0679321289062	342.7578430175781	-510.5281372070312	555.2931518554688	368.4448852539062	-277.5508117675781	843.5515747070312	153.6457977294922	-514.9765014648438	487.3016662597656	413.0450744628906	-287.4480590820312	684.5183715820312	243.9522247314453	-429.4390563964844	502.3614501953125	283.2241821289062	-288.060546875	437.5917358398438	328.356201171875	-311.343505859375	747.3844604492188	266.2972717285156	-504.1805725097656	400.4481506347656	190.5575103759766	-289.8191223144531	524.95068359375	49.12672805786133	-353.3224792480469	321.6950988769531	184.6201171875	-335.4580383300781	317.3174743652344	155.5860595703125	-367.258056640625	312.6513671875	160.0581817626953	-309.7074279785156	678.669921875	241.6397247314453	-482.4566650390625
180	0.895	834.3193359375	1515.413696289062	-581.5839233398438	881.6307373046875	1490.699096679688	-257.9375610351562	825.2838745117188	1044.88134765625	-552.03125	837.53125	1045.649658203125	-255.7969970703125	866.6690673828125	1003.83056640625	-526.1726684570312	724.8300170898438	257.5611267089844	-458.6078796386719	870.3753051757812	992.3006591796876	-265.9406127929688	781.3455200195312	922.519775390625	-577.9495849609375	742.9943237304688	923.0821533203124	-239.8354797363281	714.1658935546875	1066.435546875	-396.9640502929688	965.4784545898438	850.4912109375	-535.7159423828125	820.594970703125	390.2488403320312	-489.4002990722656	905.427734375	800.7813110351562	-571.9468994140625	1023.804138183594	764.5028686523438	-522.566162109375	457.1194152832031	58.51785659790039	-271.8959655761719	883.0407104492188	466.6767578125	-524.2523193359375	958.6040649414062	716.9859008789062	-551.489501953125	825.3832397460938	766.7310791015625	-263.6726379394531	951.00048828125	137.4611358642578	-456.1717834472656	754.5630493164062	789.0175170898438	-232.9583129882812	790.0869140625	672.296875	-277.1345520019531	716.5716552734375	698.0831909179688	-251.7598724365234	1047.72216796875	599.4020385742188	-513.1707763671875	675.915771484375	531.8818969726562	-295.0426330566406	947.378662109375	412.0867614746094	-513.8870849609375	879.3502807617188	337.9686584472656	-510.0008850097656	566.1856079101562	375.1191711425781	-276.224853515625	886.4015502929688	148.9143371582031	-515.7425537109375	498.9195556640625	420.1814880371094	-287.0044250488281	723.344482421875	231.1949462890625	-428.8902282714844	513.5789794921875	290.3540344238281	-286.3467712402344	449.0237426757812	335.3252868652344	-311.1987915039062	784.44384765625	256.6530151367188	-504.0442810058594	410.5719299316406	197.3851623535156	-288.8564147949219	527.1763916015625	48.53733444213867	-352.2892761230469	332.9844360351562	195.3224029541016	-336.1617431640625	328.4590454101562	166.9043731689453	-368.5545959472656	322.2400512695312	171.0459136962891	-311.3446044921875	717.3735961914062	228.6591033935547	-482.2338256835938
